<svg version="1.2" width="1006.8mm" height="280.3mm" viewBox="0 0 100680 28030" preserveAspectRatio="xMidYMid" fill-rule="evenodd" clip-path="url(#a)" stroke-width="28.222" stroke-linejoin="round" xmlns="http://www.w3.org/2000/svg" xml:space="preserve"><defs class="ClipPathGroup"><clipPath id="a" clipPathUnits="userSpaceOnUse"><path d="M0 0h100680v28030H0z"/></clipPath></defs><g class="Master_Slide"><g class="Background"/><g class="BackgroundObjects"/></g><g class="SlideGroup"><g class="Slide" clip-path="url(#a)"><g class="Page"><path d="M50341 14015v1h-1l1-1Z" class="com.sun.star.drawing.PolyPolygonShape"/><path d="M50340 14015h1v1h-1v-1Z" class="com.sun.star.drawing.PolyPolygonShape"/><path d="M50340 14016v-1l1 1h-1Zm1 0-1-1v1h1Z" class="com.sun.star.drawing.PolyPolygonShape"/><path d="M50341 14016h-2 1v-1l1 1Zm-1 0v-1 1Z" class="com.sun.star.drawing.PolyPolygonShape"/><path d="M50340 14016v-1 1l1-1-1 1Z" class="com.sun.star.drawing.PolyPolygonShape"/><path d="M50341 14016h-1v-1h1v1Z" class="com.sun.star.drawing.ClosedBezierShape"/><path d="M50340 14015Zm0 0h1-1Zm1-1v2h-2l2-2Z" class="com.sun.star.drawing.PolyPolygonShape"/><path d="M50339 14014h2v2h-2v-2Z" class="com.sun.star.drawing.PolyPolygonShape"/><path d="M50339 14016v-2l2 2h-2Zm2 0-2-2v2h2Z" class="com.sun.star.drawing.PolyPolygonShape"/><path d="M50341 14016h-2 1v-2l1 2Z" class="com.sun.star.drawing.PolyPolygonShape"/><g class="com.sun.star.drawing.PolyPolygonShape"/><path d="M50339 14016v-2 2l2-2-2 2Z" class="com.sun.star.drawing.PolyPolygonShape"/><path d="M50341 14016h-2v-2h2v2Z" class="com.sun.star.drawing.ClosedBezierShape"/><path d="M50340 14015Z" class="com.sun.star.drawing.PolyPolygonShape"/><g class="com.sun.star.drawing.PolyPolygonShape"/><g class="Group"><path d="M75508 20082v-221h1082v221h-420v1039h-242v-1039h-420Zm1655-221 331 906 309-906h375v1260h-221v-1017l-352 1017h-221l-354-1017v1017h-220v-1260h353Z" class="com.sun.star.drawing.PolyPolygonShape"/><path fill="#FFF" d="M16270 1305c157-288 443-940 1200-940h18133c418 0 1409 418 1253 1174-156 757-496 2036-575 2297-78 262-156 627 653 627h61210c652 0 2740 156 2009 2114-756 1957-4096 10882-4409 11404-287 548-600 888-2348 888H76097c-626 0-1200-52-1565 783-392 809-3053 6237-3340 6759-313 522-470 1253-2087 1253H15174c-1774-26-2087-731-2661-731h-1618c-287 0-992-287-1279-887-312-600-417-939-574-1252-130-288-522-601-1121-601H6121c-444 0-966-235-1044-1096-79-861-183-1618-183-1958 0-313-131-782-600-1226-496-444-3131-2636-3392-2923-261-313-757-679-365-1592 365-888 4957-9396 5218-9865 261-497 939-914 1670-914h6444c366 0 940 0 1122-444 183-469 1279-2870 1279-2870Z" class="com.sun.star.drawing.ClosedBezierShape"/><path d="M7439 5011c-653 0-1175 339-1358 679-1017 1879-4878 9056-5217 9865-235 574-26 809 208 1070l105 104c130 157 1200 1044 1956 1697 626 522 1200 1018 1409 1200 470 444 705 966 705 1514 0 209 52 522 78 913 52 313 78 652 104 1018 53 496 261 731 679 731h1800c783 0 1279 444 1487 835 52 131 104 261 183 418 78 209 209 469 365 808 235 497 783 705 939 705h1618c287 0 522 105 783 235 365 209 861 444 1878 470h53931c1200 0 1409-391 1643-835l105-209c287-522 2974-5951 3340-6733 444-1018 1226-1018 1748-1018h17455c1644 0 1800-287 2009-679 235-365 2166-5506 3339-8587 471-1226 836-2244 1044-2766 183-469 183-809 26-1044-286-417-1043-548-1669-548H36921c-469 0-756-104-939-339-208-287-104-652-78-783 78-261 418-1540 548-2270 26-79 26-183-79-339-208-236-625-366-782-366H17457c-469 0-678 339-861 705 0 0-1070 2401-1278 2844-287 705-1044 705-1461 705H7439Zm21577 23019H15161c-1226 0-1826-339-2243-548-209-104-313-157-418-157h-1618c-443 0-1252-391-1617-1122-183-365-287-626-391-835-53-157-105-287-183-392-79-208-339-391-783-391H6108c-809 0-1357-548-1436-1435-26-366-51-705-103-1018-27-418-79-783-79-992 0-340-157-653-469-939-209-183-784-679-1383-1201-1122-940-1879-1592-2036-1775-365-391-860-939-443-1983 391-940 5192-9813 5244-9892 339-652 1175-1122 2036-1122h6418c365 0 678 0 782-209 183-443 1279-2871 1279-2871C16101 783 16492 0 17457 0h18134c417 0 1044 235 1383 652 235 288 313 627 235 966-157 757-497 2062-574 2323l-27 131c27-27 104 26 313 26h61211c522 0 1748 78 2296 861 313 470 339 1044 51 1749-182 522-573 1539-1043 2766-1722 4541-3157 8325-3366 8717-417 704-913 1044-2687 1044H75928c-522 0-809 26-1070 574-391 861-3053 6237-3366 6785l-77 183c-288 522-653 1253-2323 1253H29016Z" class="com.sun.star.drawing.ClosedBezierShape"/><path d="M18070 3184c132-261 314-783 1253-783h13541c731 0 1201 288 1044 810-183 522-705 2479-809 2661-104 209-417 757 418 757h62697c991 0 1409 262 1070 1044-365 757-3314 8143-3470 8404-157 287-209 522-1123 522H74793c-626 26-1096 26-1357 444-260 391-3835 7620-3991 7855-131 235-287 496-1175 496H15618c-783 0-1226-209-1618-469-104-105-521-366-521-366s-1409 574-1644 705c-234 130-939 365-887-339 53-704 156-1723 156-1723l-2087-1566s-913 365-1252 444c-366 104-914 182-861-575 52-731 78-2192 78-2192s-3418-2845-3653-3027c-261-183-391-496-235-888 157-365 3862-7620 4045-7908 156-313 495-756 1304-756h7280c260 0 678-52 912-548 262-496 1435-3002 1435-3002Z" class="com.sun.star.drawing.ClosedBezierShape"/><path fill="#F471B4" d="M19166 4098c79-183 339-392 574-392h2479c209 0 339 209 288 392-27 182-471 1226-548 1383-78 157-236 234-497 234h-756s-339 653-365 784c-79 260-209 286-418 260h-678c-157 0-235-104-157-287 78-209 261-757 261-757-261 26-496 0-626 0-105 0-339 0-261-234 78-209 704-1383 704-1383Z" class="com.sun.star.drawing.ClosedBezierShape"/><g class="com.sun.star.drawing.OpenBezierShape"/><path fill="#F471B4" d="M23598 3941c52-78 157-261 340-261h991c156 0 209 156 156 287-52 131-286 627-312 704-26 78 0 183 130 183h548c78 0 182-51 235-156 52-104 313-731 339-809 52-105 104-209 260-209h1123c78 0 208 104 130 235-52 130-1096 2584-1122 2662-27 77-131 182-313 208h-1070c-104 0-183-77-157-182 0-130 53-234 79-366 26-104 0-156-130-156h-574c-131 0-183 105-209 156l-235 366c-27 78-78 156-261 156h-939c-79 0-209-78-157-234 78-131 1148-2584 1148-2584Z" class="com.sun.star.drawing.ClosedBezierShape"/><g class="com.sun.star.drawing.OpenBezierShape"/><path fill="#F471B4" d="M28530 3967c52-104 157-287 470-287h2531c130 0 234 26 182 156-26 131-156 445-182 522-27 53-79 53-183 53h-1175c-104 0-130 78-156 130l-78 287c-26 52 0 131 104 157h418c183 0 183 131 183 208-27 79-53 132-53 183l-209 79h-574l-183 104c-25 26-182 444-51 444h835c182-26 286 78 235 234-52 157-183 366-209 418s-105 104-235 104h-2714c-104 0-234-78-183-234 26-131 1227-2558 1227-2558Z" class="com.sun.star.drawing.ClosedBezierShape"/><g class="com.sun.star.drawing.OpenBezierShape"/><path fill="#F471B4" d="M37983 8770c131-262 391-705 1122-705h6106c286 0 573 78 469 365-78 313-392 1071-444 1227-78 183-234 183-443 183h-2844c-235 0-287 156-392 313-77 130-156 496-209 652-52 156 53 365 288 392h1017c444 0 444 339 392 495-26 209-105 366-130 445-27 104-288 208-471 208h-1409c-130 0-286 105-391 235-78 104-496 1044-157 1044s1853 26 2036 0c443 0 678 235 548 600-131 365-418 888-496 1018-52 157-235 287-574 287h-6575c-209 0-548-234-444-574 105-340 3001-6185 3001-6185Z" class="com.sun.star.drawing.ClosedBezierShape"/><g class="com.sun.star.drawing.OpenBezierShape"/><path fill="#F471B4" d="M8144 8743c183-287 261-600 913-600h6915c234 0 626 51 417 496-183 443-2217 4228-2348 4436-157 235-522 496-1070 496h-1826c-365 0-626-26-835 340-209 365-626 1148-782 1330-131 183-314 313-731 313-392 0-3418 27-3627 27-235 0-417-104-313-366 78-260 3287-6472 3287-6472Z" class="com.sun.star.drawing.ClosedBezierShape"/><g class="com.sun.star.drawing.OpenBezierShape"/><path d="M10541 12815c705 0 1253-496 1253-1123 0-599-548-1096-1253-1096-678 0-1252 497-1252 1096 0 627 574 1123 1252 1123Z" class="com.sun.star.drawing.ClosedBezierShape"/><g class="com.sun.star.drawing.OpenBezierShape"/><path fill="#F471B4" d="M57900 8743c183-261 262-600 914-600h6966c235 0 626 78 418 522-183 443-2218 4253-2375 4489-156 209-495 495-1070 495h-1852c-340 0-600-26-809 339-209 392-652 1175-809 1358-130 182-313 287-730 287-391 0-3418 52-3653 52s-418-104-313-365c78-288 3313-6577 3313-6577Z" class="com.sun.star.drawing.ClosedBezierShape"/><g class="com.sun.star.drawing.OpenBezierShape"/><path d="M60322 12815c705 0 1253-496 1253-1123 0-599-548-1096-1253-1096-678 0-1252 497-1252 1096 0 627 574 1123 1252 1123Z" class="com.sun.star.drawing.ClosedBezierShape"/><g class="com.sun.star.drawing.OpenBezierShape"/><path fill="#F471B4" d="M17779 8821c209-261 418-678 1096-678h7123c339 0 783 182 496 704-287 496-3079 5976-3236 6238-156 235-417 496-887 496h-6966c-470 0-1044-287-730-940 313-679 3104-5820 3104-5820Z" class="com.sun.star.drawing.ClosedBezierShape"/><g class="com.sun.star.drawing.OpenBezierShape"/><path d="M20351 12815c679 0 1253-496 1253-1123 0-599-574-1096-1253-1096-704 0-1252 497-1252 1096 0 627 548 1123 1252 1123Z" class="com.sun.star.drawing.ClosedBezierShape"/><g class="com.sun.star.drawing.OpenBezierShape"/><path fill="#F471B4" d="M28519 8065h1461c157 0 313 156 235 287-105 339-862 1827-888 1931-51 131 131 392 418 392s600-183 731-392c104-183 286-600 521-600h1044c130 0 261 183 183 340-53 130-104 286-131 417-52 131-52 339 444 339 235 0 365-26 496-157 104-156 1095-2088 1174-2218 78-156 312-339 574-339h1409c182 0 417 78 339 287-104 235-3366 6577-3445 6760-104 183-312 443-730 443h-2061c-235 0-261-183-261-392 0-208 78-495-208-495h-1227c-208 0-391 52-522 235-104 156-208 287-313 417-78 105-209 235-548 235h-2217c-339 0-575-287-366-705 209-391 3314-6263 3392-6446 78-156 261-339 496-339Z" class="com.sun.star.drawing.ClosedBezierShape"/><g class="com.sun.star.drawing.OpenBezierShape"/><path fill="#F471B4" d="M49653 12632c-704 0-1279-522-1279-1123 0-626 575-1148 1279-1148 731 0 1305 522 1305 1148 0 601-574 1123-1305 1123Zm6158-4594h-7228c-678 0-783 339-965 627 0 0-3340 6367-3444 6629-105 261 104 391 339 391s2322-52 2740-52c443 0 626-235 782-418 183-183 79-260 288-626 182-339 782-235 1174-209 78 104 704 783 834 914 105 104 365 365 522 365h1905c287 0 234-105 261-235 52-130-313-705-626-1148-288-418 104-601 260-653h27c574 0 939-287 1096-522 156-209 2295-4071 2478-4541 209-443-183-522-443-522Z" class="com.sun.star.drawing.ClosedBezierShape"/><g class="com.sun.star.drawing.OpenBezierShape"/><path fill="#F471B4" d="M45061 21296c-704 0-1304-495-1304-1148 0-626 600-1148 1304-1148 731 0 1305 522 1305 1148 0 653-574 1148-1305 1148Zm6288-4671h-7280c-678 0-782 313-964 601 0 0-3366 6472-3471 6759-104 261 105 392 339 392 235 0 2322-53 2766-53 417 0 626-235 782-443 158-183 53-235 288-627 183-339 782-234 1174-209 78 105 704 810 835 914 104 130 365 391 522 391h1931c286 0 209-104 260-235 53-156-339-730-652-1174-261-418 130-601 287-652 600 0 966-288 1122-522 156-235 2296-4176 2505-4620 182-470-209-522-444-522Z" class="com.sun.star.drawing.ClosedBezierShape"/><g class="com.sun.star.drawing.OpenBezierShape"/><path fill="#F471B4" d="M67656 8560c105-183 209-496 522-496h2322c156 0 418-130 235 235-156 391-600 1461-678 1697-53 209-26 391 313 391h1252c287 0 522-26 731-313 182-314 808-1592 887-1723 78-104 78-313 469-313h2192c183 0 417 0 235 339-209 366-3105 6056-3262 6290-444 653-704 992-1435 992-1826 0-6026 26-6548 26-392 0-497-417-288-939 235-522 3053-6186 3053-6186Z" class="com.sun.star.drawing.ClosedBezierShape"/><g class="com.sun.star.drawing.OpenBezierShape"/><path fill="#F471B4" d="M77653 8430c105-182 131-365 627-365s6731 26 7097 26c339 0 652-52 469 313-183 392-678 1540-756 1696-79 131-105 340-731 340h-1174c-313 0-548 131-626 313-52 157-209 600-288 757-77 182 27 313 314 313h1253c234 0 521 131 416 418-130 313-548 1096-599 1305-79 208-235 391-600 391h-1827c-287 0-392 235-496 470-104 209-209 417-286 574-78 157-209 365-601 365h-4748c-339 0-627-156-496-496 130-340 3052-6420 3052-6420Z" class="com.sun.star.drawing.ClosedBezierShape"/><g class="com.sun.star.drawing.OpenBezierShape"/><path fill="#F471B4" d="M87403 8430c104-182 130-365 625-365 522 0 6758 26 7097 26 365 0 653-52 470 313-156 392-678 1540-730 1696-79 131-105 340-731 340h-1174c-339 0-574 131-626 313-78 157-236 600-313 757-79 182 26 313 339 313h1252c209 0 522 131 392 418-131 313-522 1096-601 1305-78 208-235 391-600 391h-1826c-287 0-391 235-470 470-104 209-234 417-313 574-78 157-209 365-600 365h-4722c-366 0-627-156-522-496 130-339 3053-6420 3053-6420Z" class="com.sun.star.drawing.ClosedBezierShape"/><g class="com.sun.star.drawing.OpenBezierShape"/><path fill="#F471B4" d="M23607 17043c105-209 522-444 861-444h7097c260 0 626 183 392 731-262 522-1462 2819-1540 3001-104 209-261 392-574 392h-4018c-366 0-1696 26-1696 1252 0 1253 1878 1932 3052 757-1070 235-1591-1122 183-1174h1905c287 0 313 417 157 705-156 287-835 1592-966 1775-104 156-130 313-652 313h-7176c-260 0-651-53-469-522 209-470 3444-6786 3444-6786Z" class="com.sun.star.drawing.ClosedBezierShape"/><g class="com.sun.star.drawing.OpenBezierShape"/><path fill="#F471B4" d="M31487 21610c78-182 209-470 626-470h6679c497 0 679 288 522 678-157 391-782 1932-887 2089-104 182-104 443-626 443-495 0-6575 27-6888 27-287 0-679 0-496-470 157-444 1070-2297 1070-2297Z" class="com.sun.star.drawing.ClosedBezierShape"/><g class="com.sun.star.drawing.OpenBezierShape"/><path fill="#F471B4" d="M36923 17335c417-548 2269-1018 2948-522s1148 1383 209 2088c-914 705-2557 1618-3419 1722-860-260-2322-1044-3052-1931-835-965 52-1826 574-2062 496-234 1983-365 2740 705Z" class="com.sun.star.drawing.ClosedBezierShape"/><g class="com.sun.star.drawing.OpenBezierShape"/><path fill="#F471B4" d="M53463 17043c77-209 130-444 443-444h5479c182 0 444 79 287 444-182 366-1331 2714-1461 3001-235 522-183 862 418 862 260 0 678 51 965 51 261 0 444 157 287 522-182 340-1174 2402-1252 2559-79 130-105 286-653 286-313 0-6862 27-7175 0-652 0-835-443-548-1044 261-626 3210-6237 3210-6237Z" class="com.sun.star.drawing.ClosedBezierShape"/><g class="com.sun.star.drawing.OpenBezierShape"/><path fill="#F471B4" d="M63470 17069c157-209 261-444 991-444h6758c261 0 600 156 444 469-157 288-627 1202-705 1332-104 157-261 313-626 313s-1488 26-1774 0c-470-26-887 626-339 1018 548 418 834 678 1043 783 183 104 418 600 209 992-183 391-1096 2087-1174 2323-105 209-314 469-913 469h-6915c-208 0-522-104-365-522 157-417 1070-2270 1148-2479 79-183 313-313 601-313 287 0 1408-27 1695 0 861 26 1200-549 470-1044-287-209-783-470-965-601-182-130-470-417-340-939s600-1123 757-1357Z" class="com.sun.star.drawing.ClosedBezierShape"/><g class="com.sun.star.drawing.OpenBezierShape"/><path fill="#FFF536" d="M7279 17721h1879l1121-1592 862 1566 2139 52-1748 1096 339 1880-1592-993-2034 940 548-1852-1514-1097Zm7436 0h1879l1122-1592 861 1566 2140 52-1723 1096 314 1880-1592-993-2035 940 548-1852-1514-1097Zm-3835 3627h1853l1147-1618 835 1592 2139 53-1721 1070 313 1879-1566-992-2060 940 548-1853-1488-1071Z" class="com.sun.star.drawing.PolyPolygonShape"/></g></g></g></g></svg>